<svg width="86" height="86" viewBox="0 0 86 86" fill="none" xmlns="http://www.w3.org/2000/svg">
<g clip-path="url(#clip0_11_1670)">
<path d="M43 29.3718C45.9235 29.3718 48.7813 28.5105 51.212 26.8968C53.6428 25.2831 55.5373 22.9894 56.6561 20.3059C57.7748 17.6224 58.0676 14.6696 57.4972 11.8208C56.9269 8.97204 55.5191 6.35526 53.4519 4.3014C51.3847 2.24755 48.751 0.84885 45.8837 0.282192C43.0164 -0.284466 40.0444 0.00636322 37.3435 1.1179C34.6425 2.22944 32.334 4.11177 30.7098 6.52685C29.0857 8.94194 28.2188 11.7813 28.2188 14.6859C28.2232 18.5795 29.7819 22.3123 32.553 25.0655C35.324 27.8187 39.0811 29.3674 43 29.3718ZM43 2.67017C45.3919 2.67017 47.7301 3.37488 49.7189 4.69518C51.7077 6.01549 53.2578 7.89209 54.1732 10.0877C55.0885 12.2833 55.328 14.6992 54.8614 17.03C54.3947 19.3609 53.2429 21.5019 51.5516 23.1823C49.8602 24.8627 47.7053 26.0071 45.3594 26.4707C43.0134 26.9344 40.5818 26.6964 38.3719 25.787C36.1621 24.8775 34.2733 23.3375 32.9444 21.3615C31.6155 19.3855 30.9062 17.0624 30.9062 14.6859C30.9099 11.5002 32.1852 8.44606 34.4524 6.19345C36.7196 3.94083 39.7936 2.67375 43 2.67017Z" fill="white"/>
<path d="M41.6562 16.021H44.3438C44.7001 16.021 45.0419 16.1616 45.2939 16.412C45.5459 16.6624 45.6875 17.002 45.6875 17.3561C45.6875 17.7101 45.5459 18.0497 45.2939 18.3001C45.0419 18.5505 44.7001 18.6911 44.3438 18.6911H38.9688V21.3613H41.6562V24.0315H44.3438V21.3613C45.4129 21.3613 46.4383 20.9393 47.1943 20.1882C47.9503 19.4371 48.375 18.4183 48.375 17.3561C48.375 16.2938 47.9503 15.2751 47.1943 14.5239C46.4383 13.7728 45.4129 13.3508 44.3438 13.3508H41.6562C41.2999 13.3508 40.9581 13.2102 40.7061 12.9598C40.4541 12.7094 40.3125 12.3698 40.3125 12.0157C40.3125 11.6617 40.4541 11.3221 40.7061 11.0717C40.9581 10.8213 41.2999 10.6807 41.6562 10.6807H47.0312V8.01049H44.3438V5.34033H41.6562V8.01049C40.5871 8.01049 39.5617 8.43247 38.8057 9.1836C38.0497 9.93473 37.625 10.9535 37.625 12.0157C37.625 13.078 38.0497 14.0967 38.8057 14.8479C39.5617 15.599 40.5871 16.021 41.6562 16.021Z" fill="white"/>
<path d="M18.8125 37.3823H26.875V26.6115L29.9599 29.6521L31.8525 27.7563L22.7711 18.8058L13.8271 27.764L15.7353 29.6445L18.8125 26.5623V37.3823ZM21.5 23.8706L22.7866 22.5817L24.1875 23.9625V34.7121H21.5V23.8706Z" fill="white"/>
<path d="M63.0836 18.8058L54.1396 27.764L56.0478 29.6445L59.125 26.5623V37.3823H67.1875V26.6115L70.2724 29.6521L72.1651 27.7563L63.0836 18.8058ZM64.5 34.7121H61.8125V23.8706L63.0991 22.5817L64.5 23.9625V34.7121Z" fill="white"/>
<path d="M53.75 66.7541H56.4375V69.4242H53.75V66.7541Z" fill="white"/>
<path d="M67.2021 77.8404C67.2189 73.7549 66.7914 58.0999 59.6462 48.2866C61.0181 47.0585 63.1562 44.6251 63.1562 41.3876V40.0525H22.8437V41.3876C22.8437 44.6251 24.9818 47.0585 26.3542 48.2866C19.209 58.0994 18.7817 73.7549 18.7983 77.8404C14.6831 79.7262 15.5308 84.3374 19.8308 85.4053L19.9914 85.4452H66.009L66.1696 85.4053C70.4796 84.3353 71.3089 79.7229 67.2021 77.8404ZM25.7234 42.7227H60.2765C58.7082 48.1965 48.7292 51.4007 42.9999 51.4007C42.9806 51.4007 42.962 51.4007 42.9427 51.4007C42.7828 50.468 42.2964 49.6215 41.5692 49.0108C40.842 48.4 39.9209 48.0643 38.9687 48.063H36.2812C35.7216 48.0627 35.1682 48.1785 34.6562 48.403C34.1443 48.6274 33.6851 48.9555 33.3081 49.3663C30.2602 48.0613 26.6326 45.896 25.7234 42.7227ZM40.3124 52.0682C40.312 52.4222 40.1703 52.7615 39.9184 53.0118C39.6665 53.2621 39.325 53.4029 38.9687 53.4033H36.2812C35.9248 53.4033 35.583 53.2626 35.331 53.0123C35.079 52.7619 34.9374 52.4223 34.9374 52.0682C34.9374 51.7141 35.079 51.3745 35.331 51.1242C35.583 50.8738 35.9248 50.7331 36.2812 50.7331H38.9687C39.325 50.7335 39.6665 50.8743 39.9184 51.1246C40.1703 51.3749 40.312 51.7143 40.3124 52.0682ZM65.6438 82.7751H20.3578C18.302 82.0818 18.2944 80.8008 20.3568 80.1049H29.5624V77.4347H21.4912C21.5248 73.0739 22.1394 58.6627 28.5123 49.8782C29.7079 50.623 30.9603 51.2738 32.258 51.8246C32.2531 51.9052 32.2498 51.9863 32.2498 52.0682C32.2496 52.6313 32.3693 53.188 32.6009 53.7019C32.8324 54.2159 33.1707 54.6753 33.5935 55.0503V61.4138H36.281V56.0735H38.9685V66.7541H41.656V55.0503C41.9757 54.7656 42.2478 54.4324 42.4623 54.063C42.6407 54.0667 42.8185 54.0708 42.9998 54.0708C49.5467 54.0708 55.1703 51.2004 57.4619 49.8443C60.9556 54.6419 62.724 61.1372 63.6156 66.7541H59.1249V69.4243H63.9865C64.0982 70.3605 64.1865 71.2552 64.2562 72.0944H51.0624V74.7646H64.4309C64.483 75.8548 64.5025 76.7635 64.508 77.4347H53.7499V80.1049H65.6421C67.7016 80.7996 67.7029 82.0798 65.6438 82.7751Z" fill="white"/>
</g>
<defs>
<clipPath id="clip0_11_1670">
<rect width="86" height="85.4452" fill="white"/>
</clipPath>
</defs>
</svg>
