<svg width="86" height="86" viewBox="0 0 86 86" fill="none" xmlns="http://www.w3.org/2000/svg">
<path d="M81.9688 80.1048H75.25V40.0524C75.25 39.6983 75.1084 39.3588 74.8564 39.1084C74.6044 38.858 74.2626 38.7173 73.9062 38.7173H65.8438C65.4874 38.7173 65.1456 38.858 64.8936 39.1084C64.6416 39.3588 64.5 39.6983 64.5 40.0524V80.1048H61.8125V50.7331C61.8125 50.379 61.6709 50.0394 61.4189 49.789C61.1669 49.5386 60.8251 49.398 60.4688 49.398H52.4062C52.0499 49.398 51.7081 49.5386 51.4561 49.789C51.2041 50.0394 51.0625 50.379 51.0625 50.7331V80.1048H48.375V46.7278C48.375 46.3737 48.2334 46.0342 47.9814 45.7838C47.7294 45.5334 47.3876 45.3927 47.0312 45.3927H38.9688C38.6124 45.3927 38.2706 45.5334 38.0186 45.7838C37.7666 46.0342 37.625 46.3737 37.625 46.7278V80.1048H34.9375V52.0681C34.9375 51.7141 34.7959 51.3745 34.5439 51.1241C34.2919 50.8737 33.9501 50.7331 33.5938 50.7331H25.5312C25.1749 50.7331 24.8331 50.8737 24.5811 51.1241C24.3291 51.3745 24.1875 51.7141 24.1875 52.0681V80.1048H21.5V57.4085C21.5 57.0544 21.3584 56.7148 21.1064 56.4644C20.8544 56.2141 20.5126 56.0734 20.1562 56.0734H12.0938C11.7374 56.0734 11.3956 56.2141 11.1436 56.4644C10.8916 56.7148 10.75 57.0544 10.75 57.4085V80.1048H4.03125C3.67487 80.1048 3.33308 80.2455 3.08108 80.4959C2.82907 80.7463 2.6875 81.0858 2.6875 81.4399C2.6875 81.794 2.82907 82.1336 3.08108 82.384C3.33308 82.6343 3.67487 82.775 4.03125 82.775H81.9688C82.3251 82.775 82.6669 82.6343 82.9189 82.384C83.1709 82.1336 83.3125 81.794 83.3125 81.4399C83.3125 81.0858 83.1709 80.7463 82.9189 80.4959C82.6669 80.2455 82.3251 80.1048 81.9688 80.1048ZM13.4375 80.1048V58.7436H18.8125V80.1048H13.4375ZM26.875 80.1048V53.4032H32.25V80.1048H26.875ZM40.3125 80.1048V48.0629H45.6875V80.1048H40.3125ZM53.75 80.1048V52.0681H59.125V80.1048H53.75ZM67.1875 80.1048V41.3875H72.5625V80.1048H67.1875Z" fill="white"/>
<path d="M6.71878 54.7383C6.90054 54.7383 7.08038 54.7015 7.24737 54.6302L13.1627 52.1114C13.7121 52.7045 14.429 53.1191 15.2194 53.3007C16.0099 53.4824 16.8371 53.4227 17.5929 53.1295C18.3487 52.8363 18.9977 52.3232 19.4551 51.6574C19.9125 50.9916 20.1568 50.2041 20.1563 49.398C20.1563 49.3434 20.1543 49.2895 20.1521 49.2354L26.5349 46.6988C27.075 47.3114 27.7905 47.7458 28.5856 47.9438C29.3808 48.1419 30.2178 48.0942 30.985 47.8072C31.7521 47.5201 32.4129 47.0074 32.8791 46.3374C33.3452 45.6674 33.5945 44.8721 33.5938 44.0577C33.5938 44.0031 33.5918 43.9492 33.5896 43.8951L39.9724 41.3585C40.37 41.8096 40.8647 42.1661 41.4198 42.4016C41.9748 42.637 42.5761 42.7455 43.1791 42.7188C43.782 42.6921 44.3712 42.531 44.903 42.2475C45.4349 41.964 45.8957 41.5652 46.2514 41.0808L52.4105 42.9165C52.4386 43.504 52.5966 44.0781 52.8732 44.5981C53.1498 45.118 53.5383 45.5711 54.0111 45.9251C54.4839 46.279 55.0293 46.5252 55.6086 46.6461C56.1879 46.767 56.7869 46.7596 57.3631 46.6245C57.9392 46.4894 58.4783 46.2299 58.9421 45.8645C59.4059 45.499 59.7831 45.0365 60.0467 44.5099C60.3103 43.9833 60.4539 43.4055 60.4674 42.8175C60.4809 42.2295 60.3638 41.6458 60.1246 41.1078L67.6664 34.0554C68.4233 34.5492 69.3256 34.7752 70.2276 34.697C71.1296 34.6188 71.9789 34.2409 72.6382 33.6243C73.2976 33.0078 73.7286 32.1884 73.8618 31.2986C73.995 30.4087 73.8226 29.5003 73.3723 28.7197L77.9375 24.4511V25.3665C77.9375 25.7206 78.0791 26.0602 78.3311 26.3106C78.5831 26.5609 78.9249 26.7016 79.2813 26.7016C79.6377 26.7016 79.9794 26.5609 80.2314 26.3106C80.4835 26.0602 80.625 25.7206 80.625 25.3665V21.3613C80.625 21.0072 80.4835 20.6676 80.2314 20.4172C79.9794 20.1668 79.6377 20.0262 79.2813 20.0262H75.25C74.8936 20.0262 74.5518 20.1668 74.2998 20.4172C74.0478 20.6676 73.9063 21.0072 73.9063 21.3613C73.9063 21.7154 74.0478 22.0549 74.2998 22.3053C74.5518 22.5557 74.8936 22.6963 75.25 22.6963H75.893L71.3229 26.9698C70.6144 26.6985 69.8432 26.6315 69.0981 26.7766C68.353 26.9218 67.6643 27.2731 67.1113 27.7901C66.5584 28.3071 66.1637 28.9688 65.9727 29.699C65.7817 30.4291 65.8023 31.198 66.0319 31.9171L58.2825 39.1636C57.4291 38.7253 56.446 38.6049 55.511 38.8243C54.576 39.0436 53.7509 39.5882 53.185 40.3595L47.0259 38.5237C46.9718 37.4819 46.5107 36.5021 45.7406 35.7928C44.9705 35.0835 43.9523 34.7008 42.9025 34.726C41.8528 34.7513 40.8544 35.1824 40.1197 35.9278C39.3851 36.6733 38.9721 37.6741 38.9688 38.7173C38.9688 38.7719 38.9708 38.826 38.973 38.8799L32.5902 41.4165C32.05 40.8039 31.3346 40.3695 30.5394 40.1715C29.7443 39.9734 28.9072 40.0211 28.1401 40.3081C27.3729 40.5952 26.7121 41.1079 26.246 41.7779C25.7799 42.4479 25.5305 43.2432 25.5313 44.0577C25.5313 44.1122 25.5333 44.1661 25.5355 44.2202L19.1527 46.7569C18.6125 46.1442 17.8971 45.7099 17.1019 45.5118C16.3068 45.3138 15.4697 45.3614 14.7026 45.6485C13.9354 45.9355 13.2746 46.4483 12.8085 47.1182C12.3423 47.7882 12.093 48.5835 12.0938 49.398C12.0938 49.4854 12.0976 49.5719 12.1032 49.658L6.18951 52.176C5.90497 52.297 5.67123 52.512 5.52778 52.7845C5.38433 53.057 5.33997 53.3704 5.40219 53.6716C5.46442 53.9729 5.62941 54.2436 5.8693 54.4379C6.10918 54.6323 6.40925 54.7384 6.71878 54.7383ZM69.875 29.3718C70.1408 29.3718 70.4006 29.4501 70.6216 29.5968C70.8425 29.7435 71.0148 29.952 71.1165 30.1959C71.2182 30.4399 71.2448 30.7083 71.193 30.9673C71.1411 31.2263 71.0131 31.4642 70.8252 31.6509C70.6373 31.8376 70.3978 31.9648 70.1372 32.0163C69.8765 32.0678 69.6063 32.0413 69.3608 31.9403C69.1153 31.8392 68.9054 31.6681 68.7577 31.4486C68.6101 31.229 68.5313 30.9709 68.5313 30.7068C68.5317 30.3529 68.6734 30.0135 68.9253 29.7632C69.1772 29.5129 69.5188 29.3722 69.875 29.3718ZM56.4375 41.3875C56.7033 41.3875 56.9631 41.4658 57.1841 41.6125C57.405 41.7592 57.5773 41.9677 57.679 42.2117C57.7807 42.4556 57.8073 42.7241 57.7555 42.983C57.7036 43.242 57.5756 43.4799 57.3877 43.6666C57.1998 43.8533 56.9603 43.9805 56.6997 44.032C56.439 44.0835 56.1688 44.0571 55.9233 43.956C55.6778 43.855 55.4679 43.6839 55.3202 43.4643C55.1726 43.2448 55.0938 42.9866 55.0938 42.7226C55.0942 42.3686 55.2359 42.0293 55.4878 41.779C55.7397 41.5287 56.0813 41.3879 56.4375 41.3875ZM43 37.3822C43.2658 37.3822 43.5256 37.4605 43.7466 37.6073C43.9675 37.754 44.1398 37.9625 44.2415 38.2064C44.3432 38.4504 44.3698 38.7188 44.318 38.9778C44.2661 39.2368 44.1381 39.4747 43.9502 39.6614C43.7623 39.8481 43.5228 39.9752 43.2622 40.0268C43.0015 40.0783 42.7313 40.0518 42.4858 39.9508C42.2403 39.8497 42.0304 39.6786 41.8827 39.4591C41.7351 39.2395 41.6563 38.9814 41.6563 38.7173C41.6567 38.3634 41.7984 38.024 42.0503 37.7737C42.3022 37.5234 42.6438 37.3826 43 37.3822ZM29.5625 42.7226C29.8283 42.7226 30.0881 42.8009 30.3091 42.9476C30.5301 43.0943 30.7023 43.3028 30.804 43.5467C30.9057 43.7907 30.9323 44.0591 30.8805 44.3181C30.8286 44.5771 30.7006 44.815 30.5127 45.0017C30.3248 45.1884 30.0853 45.3156 29.8247 45.3671C29.564 45.4186 29.2938 45.3922 29.0483 45.2911C28.8028 45.1901 28.5929 45.0189 28.4452 44.7994C28.2976 44.5798 28.2188 44.3217 28.2188 44.0577C28.2192 43.7037 28.3609 43.3643 28.6128 43.114C28.8647 42.8638 29.2063 42.723 29.5625 42.7226ZM16.125 48.0629C16.3908 48.0629 16.6506 48.1412 16.8716 48.2879C17.0926 48.4346 17.2648 48.6431 17.3665 48.8871C17.4682 49.131 17.4948 49.3995 17.443 49.6584C17.3911 49.9174 17.2631 50.1553 17.0752 50.342C16.8873 50.5287 16.6478 50.6559 16.3872 50.7074C16.1265 50.7589 15.8563 50.7325 15.6108 50.6314C15.3653 50.5304 15.1554 50.3593 15.0077 50.1397C14.8601 49.9202 14.7813 49.662 14.7813 49.398C14.7817 49.044 14.9234 48.7047 15.1753 48.4544C15.4272 48.2041 15.7688 48.0633 16.125 48.0629Z" fill="white"/>
<path d="M30.9782 35.7386C31.2527 35.96 31.604 36.065 31.9559 36.0308C32.3079 35.9966 32.632 35.8259 32.8582 35.5558C33.0843 35.2857 33.1941 34.938 33.1639 34.5879C33.1337 34.2379 32.9658 33.9138 32.6967 33.6859C31.6031 32.7826 30.634 31.7401 29.8145 30.5854H35.6996C35.9333 31.6504 36.2073 32.7085 36.5215 33.7595C36.5712 33.9284 36.6541 34.0859 36.7653 34.2228C36.8766 34.3598 37.0139 34.4735 37.1696 34.5576C37.3252 34.6416 37.496 34.6942 37.6722 34.7124C37.8484 34.7306 38.0264 34.714 38.1961 34.6636C38.3658 34.6132 38.5238 34.5299 38.661 34.4186C38.7982 34.3073 38.9119 34.1702 38.9956 34.015C39.0792 33.8599 39.1312 33.6899 39.1485 33.5148C39.1658 33.3396 39.148 33.1628 39.0963 32.9945C38.8561 32.1965 38.6419 31.3934 38.4536 30.5854H47.5459C47.3565 31.3928 47.1423 32.1958 46.9035 32.9945C46.8517 33.1628 46.834 33.3396 46.8513 33.5148C46.8686 33.6899 46.9205 33.8599 47.0042 34.015C47.0879 34.1702 47.2015 34.3073 47.3387 34.4186C47.4759 34.5299 47.6339 34.6132 47.8036 34.6636C47.9733 34.714 48.1514 34.7306 48.3276 34.7124C48.5037 34.6942 48.6746 34.6416 48.8302 34.5576C48.9858 34.4735 49.1232 34.3598 49.2344 34.2228C49.3456 34.0859 49.4285 33.9284 49.4783 33.7595C49.7944 32.7093 50.0684 31.6512 50.3003 30.5854H56.1901C55.5906 31.4262 54.9119 32.2086 54.1632 32.9218C53.9061 33.1669 53.7575 33.5036 53.7502 33.8576C53.7428 34.2116 53.8773 34.5541 54.1241 34.8096C54.3709 35.0651 54.7097 35.2127 55.066 35.22C55.4224 35.2273 55.767 35.0936 56.0242 34.8484C57.8615 33.1097 59.3225 31.0168 60.3178 28.6977C61.3131 26.3787 61.8217 23.8823 61.8125 21.3613C61.8068 17.0299 60.2897 12.8345 57.5196 9.48988C54.7495 6.14527 50.898 3.85841 46.6211 3.01893C46.5855 3.01075 46.5494 3.00374 46.5129 2.9984C42.4155 2.22423 38.1752 2.8249 34.4588 4.70599C30.7424 6.58708 27.7606 9.64192 25.982 13.3903C24.2035 17.1386 23.7291 21.3679 24.6335 25.4133C25.5379 29.4587 27.7697 33.0908 30.9782 35.7386ZM28.7074 27.9152C28.5728 27.9151 28.4389 27.9351 28.3103 27.9746C27.5494 26.3068 27.0827 24.5213 26.9306 22.6964H34.7207C34.7747 24.444 34.9352 26.1868 35.2013 27.9152H28.7074ZM29.1121 13.2293H35.475C35.0442 15.4717 34.7923 17.7444 34.7219 20.0262H26.9315C27.1311 17.6258 27.8767 15.3017 29.1121 13.2293ZM59.0686 20.0262H51.2791C51.2082 17.7444 50.9561 15.4717 50.525 13.2293H56.8885C58.1237 15.3018 58.8692 17.6258 59.0686 20.0262ZM48.5905 20.0262H37.41C37.4859 17.7421 37.7553 15.4684 38.2155 13.2293H47.7856C48.2457 15.4684 48.5149 17.7421 48.5905 20.0262ZM37.9217 27.9152C37.638 26.1884 37.467 24.4451 37.4097 22.6964H48.5909C48.5334 24.4451 48.3622 26.1884 48.0786 27.9152H37.9217ZM57.2927 27.9152H50.7993C51.0655 26.1868 51.2259 24.444 51.2797 22.6964H59.0696C58.9225 24.5222 58.4585 26.3089 57.6983 27.9776C57.5671 27.9362 57.4303 27.9152 57.2927 27.9152ZM54.8978 10.5591H49.9217C49.5514 9.12924 49.1076 7.71911 48.5922 6.33427C51.0021 7.22478 53.1637 8.67307 54.8978 10.5591ZM45.3739 5.5142C46.0739 7.15545 46.6642 8.84075 47.1411 10.5591H38.8603C39.3371 8.84072 39.9274 7.15541 40.6275 5.5142C42.2011 5.28234 43.8006 5.28234 45.3743 5.5142H45.3739ZM37.4092 6.33394C36.8933 7.71882 36.4492 9.12907 36.0786 10.5591H31.1023C32.8367 8.6728 34.9987 7.22437 37.409 6.33394H37.4092Z" fill="white"/>
</svg>
