<svg width="86" height="85" viewBox="0 0 86 85" fill="none" xmlns="http://www.w3.org/2000/svg">
<path d="M50.4379 79.5232H36.5361C35.9298 79.5235 35.3297 79.4024 34.772 79.1672C34.2143 78.932 33.7106 78.5877 33.2912 78.1549C32.8718 77.7222 32.5454 77.2099 32.3317 76.6491C32.118 76.0883 32.0215 75.4905 32.0478 74.8918V65.651C32.0478 65.3463 32.1703 65.0542 32.3882 64.8388C32.6062 64.6233 32.9018 64.5023 33.21 64.5023C33.5182 64.5023 33.8138 64.6233 34.0318 64.8388C34.2497 65.0542 34.3721 65.3463 34.3721 65.651V74.8918C34.3471 75.1883 34.3844 75.4866 34.4817 75.7681C34.579 76.0497 34.7341 76.3082 34.9373 76.5277C35.1405 76.7471 35.3875 76.9226 35.6626 77.0431C35.9377 77.1637 36.2351 77.2267 36.5361 77.2282H50.4379C51.123 77.2467 51.7919 77.0208 52.3222 76.5917C52.8525 76.1627 53.2088 75.5593 53.3258 74.8918V65.651C53.3258 65.3463 53.4483 65.0542 53.6662 64.8388C53.8842 64.6233 54.1798 64.5023 54.488 64.5023C54.7962 64.5023 55.0918 64.6233 55.3098 64.8388C55.5277 65.0542 55.6502 65.3463 55.6502 65.651V74.8918C55.5443 76.1758 54.9453 77.371 53.976 78.2322C53.0068 79.0934 51.7408 79.5553 50.4379 79.5232Z" fill="white"/>
<path d="M53.5025 66.7997H34.1966C33.6512 66.7965 33.1241 66.6046 32.707 66.2574C32.2898 65.9101 32.0089 65.4294 31.913 64.8987C30.9388 60.3853 28.7275 56.2236 25.5211 52.8689C22.4419 49.3889 20.4419 45.106 19.7604 40.5324C19.0788 35.9587 19.7445 31.2878 21.6778 27.0781C23.6112 22.8685 26.7303 19.2983 30.6623 16.7945C34.5943 14.2906 39.1727 12.9591 43.8501 12.9591C48.5275 12.9591 53.106 14.2906 57.038 16.7945C60.9699 19.2983 64.0891 22.8685 66.0224 27.0781C67.9557 31.2878 68.6214 35.9587 67.9399 40.5324C67.2583 45.106 65.2584 49.3889 62.1792 52.8689C58.9716 56.2233 56.7592 60.385 55.7838 64.8987C55.688 65.429 55.4074 65.9094 54.9907 66.2566C54.574 66.6039 54.0475 66.796 53.5025 66.7997ZM43.8344 15.2667C39.6059 15.268 35.4672 16.4729 31.9131 18.7373C28.359 21.0017 25.5399 24.2298 23.7927 28.0357C22.0455 31.8416 21.4442 36.0643 22.0607 40.199C22.6772 44.3337 24.4853 48.2055 27.269 51.3515C30.7553 55.0161 33.153 59.5589 34.1989 64.4817L53.4908 64.5024C54.5407 59.5728 56.9421 55.0237 60.4324 51.3527C63.1359 48.2977 64.921 44.5563 65.5861 40.5512C66.2511 36.5461 65.7697 32.4371 64.196 28.6883C62.6224 24.9395 60.0194 21.7003 56.681 19.3369C53.3427 16.9735 49.4021 15.58 45.3046 15.3138C44.8134 15.2832 44.3233 15.2675 43.8344 15.2667Z" fill="white"/>
<path d="M43.8483 83.7043C42.4468 83.7022 41.1033 83.1508 40.1125 82.1711C39.1216 81.1913 38.5644 79.8632 38.5628 78.478C38.5593 78.1627 38.6776 77.858 38.8936 77.626C39.1095 77.394 39.4069 77.2522 39.725 77.2294H47.9763C48.2846 77.2294 48.5802 77.3504 48.7981 77.5658C49.0161 77.7812 49.1385 78.0734 49.1385 78.378C49.1482 79.0719 49.0187 79.7608 48.7575 80.405C48.4963 81.0492 48.1085 81.6358 47.6167 82.131C47.1248 82.6262 46.5385 83.0203 45.8918 83.2903C45.245 83.5603 44.5505 83.7011 43.8483 83.7043ZM41.0836 79.5267C41.2981 80.0797 41.6774 80.5554 42.1712 80.891C42.665 81.2266 43.2502 81.4062 43.8495 81.4062C44.4488 81.4062 45.034 81.2266 45.5278 80.891C46.0216 80.5554 46.4009 80.0797 46.6154 79.5267H41.0836Z" fill="white"/>
<path d="M31.6108 71.8584C31.3126 71.8584 31.0258 71.7452 30.8098 71.5421C30.5937 71.339 30.4649 71.0616 30.4499 70.7672C30.435 70.4729 30.5351 70.1841 30.7296 69.9607C30.924 69.7373 31.1979 69.5962 31.4946 69.5668L55.7919 67.1064C55.9462 67.0862 56.1031 67.0969 56.2531 67.1378C56.4032 67.1787 56.5434 67.249 56.6655 67.3445C56.7875 67.44 56.8889 67.5588 56.9636 67.6937C57.0384 67.8287 57.0849 67.9771 57.1005 68.1302C57.116 68.2833 57.1003 68.4379 57.0543 68.5849C57.0083 68.7319 56.9328 68.8682 56.8324 68.9858C56.7321 69.1034 56.6088 69.1999 56.47 69.2695C56.3312 69.3391 56.1796 69.3804 56.0243 69.3911L31.727 71.8515C31.6884 71.8559 31.6496 71.8582 31.6108 71.8584Z" fill="white"/>
<path d="M31.7897 76.5781C31.4815 76.5933 31.1798 76.4869 30.9509 76.2823C30.7221 76.0776 30.5849 75.7915 30.5694 75.4869C30.554 75.1822 30.6617 74.884 30.8687 74.6578C31.0758 74.4316 31.3653 74.296 31.6735 74.2808L55.7918 71.8388C55.9462 71.8186 56.103 71.8293 56.2531 71.8702C56.4031 71.9111 56.5434 71.9814 56.6654 72.0769C56.7875 72.1724 56.8889 72.2911 56.9636 72.4261C57.0383 72.5611 57.0848 72.7095 57.1004 72.8626C57.116 73.0157 57.1003 73.1703 57.0542 73.3173C57.0082 73.4642 56.9327 73.6005 56.8324 73.7181C56.732 73.8357 56.6088 73.9322 56.4699 74.0018C56.3311 74.0715 56.1796 74.1128 56.0243 74.1234L31.9083 76.5723C31.8689 76.5765 31.8293 76.5785 31.7897 76.5781Z" fill="white"/>
<path d="M43.7577 10.3011C43.4495 10.3011 43.1539 10.18 42.936 9.96463C42.718 9.74922 42.5956 9.45706 42.5956 9.15242V4.44296C42.5956 4.13832 42.718 3.84616 42.936 3.63074C43.1539 3.41533 43.4495 3.29431 43.7577 3.29431C44.066 3.29431 44.3616 3.41533 44.5795 3.63074C44.7975 3.84616 44.9199 4.13832 44.9199 4.44296V9.15242C44.9199 9.45706 44.7975 9.74922 44.5795 9.96463C44.3616 10.18 44.066 10.3011 43.7577 10.3011Z" fill="white"/>
<path d="M29.799 14.0468C29.5946 14.0472 29.3937 13.9943 29.2166 13.8935C29.0395 13.7927 28.8924 13.6475 28.7902 13.4725L26.4113 9.3971C26.2596 9.13342 26.2196 8.82114 26.3 8.52842C26.3804 8.2357 26.5747 7.98629 26.8405 7.83463C27.1062 7.68296 27.4219 7.64135 27.7186 7.71888C28.0153 7.79641 28.2689 7.98678 28.4241 8.24845L30.8043 12.3239C30.9062 12.4984 30.9599 12.6964 30.96 12.8979C30.96 13.0994 30.9064 13.2974 30.8045 13.472C30.7027 13.6466 30.5561 13.7916 30.3796 13.8925C30.2031 13.9934 30.0029 14.0466 29.799 14.0468Z" fill="white"/>
<path d="M19.601 24.1894C19.397 24.1898 19.1964 24.1367 19.0199 24.0354L14.8989 21.6819C14.7619 21.609 14.6411 21.5097 14.5437 21.3898C14.4462 21.27 14.3741 21.132 14.3317 20.9841C14.2892 20.8362 14.2772 20.6813 14.2963 20.5287C14.3155 20.3762 14.3655 20.2289 14.4433 20.0958C14.5211 19.9627 14.6252 19.8463 14.7494 19.7537C14.8735 19.661 15.0152 19.5939 15.1661 19.5564C15.317 19.5189 15.4739 19.5117 15.6277 19.5353C15.7814 19.5588 15.9288 19.6127 16.0611 19.6936L20.1833 22.046C20.4048 22.1724 20.5779 22.3676 20.6758 22.6012C20.7737 22.8348 20.7909 23.0938 20.7247 23.338C20.6585 23.5822 20.5126 23.7981 20.3096 23.952C20.1067 24.1059 19.858 24.1894 19.6022 24.1894H19.601Z" fill="white"/>
<path d="M15.9054 38.0111H11.1406C10.8323 38.0111 10.5367 37.8901 10.3188 37.6747C10.1008 37.4593 9.97839 37.1671 9.97839 36.8625C9.97839 36.5578 10.1008 36.2657 10.3188 36.0502C10.5367 35.8348 10.8323 35.7138 11.1406 35.7138H15.9054C16.2136 35.7138 16.5092 35.8348 16.7272 36.0502C16.9451 36.2657 17.0676 36.5578 17.0676 36.8625C17.0676 37.1671 16.9451 37.4593 16.7272 37.6747C16.5092 37.8901 16.2136 38.0111 15.9054 38.0111Z" fill="white"/>
<path d="M15.573 54.161C15.3172 54.161 15.0685 54.0776 14.8656 53.9237C14.6626 53.7697 14.5167 53.5539 14.4505 53.3097C14.3843 53.0655 14.4014 52.8065 14.4993 52.5728C14.5972 52.3392 14.7704 52.1441 14.9919 52.0177L19.1153 49.6652C19.2475 49.5898 19.3935 49.5409 19.5449 49.5212C19.6962 49.5015 19.8501 49.5115 19.9975 49.5506C20.145 49.5897 20.2832 49.6571 20.4043 49.749C20.5254 49.8409 20.6271 49.9555 20.7034 50.0862C20.7797 50.2169 20.8292 50.3612 20.8491 50.5108C20.869 50.6604 20.8589 50.8125 20.8193 50.9582C20.7797 51.104 20.7115 51.2406 20.6186 51.3603C20.5256 51.48 20.4097 51.5804 20.2774 51.6558L16.1541 54.0083C15.9773 54.1087 15.7769 54.1614 15.573 54.161Z" fill="white"/>
<path d="M57.9001 14.0468C57.6962 14.0466 57.4959 13.9934 57.3194 13.8925C57.1429 13.7916 56.9964 13.6466 56.8945 13.472C56.7927 13.2974 56.7391 13.0994 56.7391 12.8979C56.7392 12.6964 56.7929 12.4984 56.8948 12.3239L59.2703 8.24845C59.4255 7.98678 59.6791 7.79641 59.9758 7.71888C60.2725 7.64135 60.5882 7.68296 60.854 7.83463C61.1197 7.98629 61.314 8.2357 61.3944 8.52842C61.4748 8.82114 61.4348 9.13342 61.2832 9.3971L58.9031 13.4725C58.8014 13.6466 58.6552 13.7913 58.4792 13.8921C58.3032 13.9929 58.1035 14.0462 57.9001 14.0468Z" fill="white"/>
<path d="M68.1027 24.1894C67.8468 24.1894 67.5982 24.1059 67.3952 23.952C67.1923 23.7981 67.0464 23.5822 66.9802 23.338C66.9139 23.0938 66.9311 22.8348 67.029 22.6012C67.1269 22.3676 67.3 22.1724 67.5216 22.046L71.6438 19.6936C71.7761 19.6127 71.9235 19.5588 72.0772 19.5353C72.2309 19.5117 72.3879 19.5189 72.5387 19.5564C72.6896 19.5939 72.8313 19.661 72.9555 19.7537C73.0796 19.8463 73.1837 19.9627 73.2615 20.0958C73.3393 20.2289 73.3893 20.3762 73.4085 20.5287C73.4277 20.6813 73.4157 20.8362 73.3732 20.9841C73.3307 21.132 73.2586 21.27 73.1612 21.3898C73.0637 21.5097 72.9429 21.609 72.8059 21.6819L68.6837 24.0354C68.5072 24.1367 68.3067 24.1898 68.1027 24.1894Z" fill="white"/>
<path d="M76.554 38.0111H71.7891C71.4809 38.0111 71.1853 37.8901 70.9673 37.6747C70.7494 37.4593 70.627 37.1671 70.627 36.8625C70.627 36.5578 70.7494 36.2657 70.9673 36.0502C71.1853 35.8348 71.4809 35.7138 71.7891 35.7138H76.554C76.8622 35.7138 77.1578 35.8348 77.3758 36.0502C77.5937 36.2657 77.7161 36.5578 77.7161 36.8625C77.7161 37.1671 77.5937 37.4593 77.3758 37.6747C77.1578 37.8901 76.8622 38.0111 76.554 38.0111Z" fill="white"/>
<path d="M72.1261 54.161C71.9222 54.161 71.7219 54.1083 71.545 54.0083L67.424 51.6558C67.2917 51.5804 67.1758 51.48 67.0828 51.3603C66.9899 51.2406 66.9216 51.104 66.8821 50.9582C66.8425 50.8125 66.8324 50.6604 66.8523 50.5108C66.8722 50.3612 66.9217 50.2169 66.998 50.0862C67.0743 49.9555 67.1759 49.8409 67.2971 49.749C67.4182 49.6571 67.5564 49.5897 67.7039 49.5506C67.8513 49.5115 68.0051 49.5015 68.1565 49.5212C68.3079 49.5409 68.4539 49.5898 68.5861 49.6652L72.7071 52.0177C72.9287 52.1441 73.1018 52.3392 73.1997 52.5728C73.2976 52.8065 73.3148 53.0655 73.2486 53.3097C73.1824 53.5539 73.0365 53.7697 72.8335 53.9237C72.6306 54.0776 72.3819 54.161 72.1261 54.161Z" fill="white"/>
<path d="M38.8407 66.7997C38.5785 66.7994 38.3241 66.7116 38.1188 66.5504C37.9135 66.3892 37.7694 66.1641 37.7099 65.9118L32.0757 42.0187C32.0282 41.8166 32.0369 41.6055 32.101 41.4079C32.1651 41.2103 32.2821 41.0336 32.4397 40.8964C32.5973 40.7593 32.7895 40.6669 32.9959 40.6291C33.2023 40.5913 33.4153 40.6095 33.6121 40.6817L38.879 42.6149L43.2476 40.0051C43.429 39.8967 43.637 39.8394 43.849 39.8394C44.061 39.8394 44.269 39.8967 44.4504 40.0051L48.8202 42.6149L54.0824 40.6817C54.2793 40.6095 54.4922 40.5913 54.6986 40.6291C54.9051 40.6669 55.0973 40.7593 55.2549 40.8964C55.4124 41.0336 55.5295 41.2103 55.5936 41.4079C55.6576 41.6055 55.6664 41.8166 55.6188 42.0187L49.9893 65.9106C49.9193 66.2073 49.733 66.4644 49.4712 66.6253C49.2095 66.7863 48.8938 66.8378 48.5935 66.7686C48.2933 66.6995 48.0332 66.5153 47.8704 66.2566C47.7076 65.9979 47.6554 65.6858 47.7254 65.3891L52.8645 43.5774L49.1037 44.9558C48.9395 45.0155 48.7639 45.038 48.5897 45.0217C48.4155 45.0054 48.2473 44.9507 48.0973 44.8616L43.8484 42.3311L39.6019 44.8674C39.4522 44.957 39.2839 45.012 39.1096 45.0283C38.9353 45.0446 38.7596 45.0218 38.5955 44.9615L34.8335 43.5832L39.9784 65.3903C40.0481 65.687 39.9956 65.9989 39.8326 66.2574C39.6695 66.5159 39.4093 66.6998 39.1091 66.7686C39.0211 66.7889 38.9311 66.7993 38.8407 66.7997Z" fill="white"/>
</svg>
